/* XPM */
static char *magick[] = {
/* columns rows colors chars-per-pixel */
"32 32 23 1",
"  c Gray0",
". c #191919",
"X c Gray20",
"o c #00007f",
"O c #007f00",
"+ c #007f7f",
"@ c #7f0000",
"# c #7f007f",
"$ c #7f7f00",
"% c #4c4c4c",
"& c #666667",
"* c Gray50",
"= c Blue",
"- c Green",
"; c Cyan",
": c Red",
"> c Magenta",
", c Yellow",
"< c Gray60",
"1 c #b2b2b2",
"2 c Gray80",
"3 c Gray90",
"4 c Gray100",
/* pixels */
"222111112;2112121222111112112121",
"121112;2112211223+11212111121111",
"221112222112111333+221121221112;",
"2112111211222133333&12222;212222",
"11111112212122333323$221+2121211",
"212121112122333%3 332&41%1111121",
";212112;22132233211%44443&112211",
"2211222222233.3112344444442112;2",
"11111211133321114444441444%22121",
"1212222133311 444444*%4444%22212",
"211112233111444444:4334%444%2111",
";11222331 433223* 2332%322231112",
"222213&&11&*&&%#%%# %&#%  #%&221",
"12233343434444434444344444443311",
"113&2&&&3333333333333332222333+2",
"2133333333333333332333232X**23%o",
"22344333333333232233222221#*24.%",
"124#&34#&#333333333223323:.#24.%",
"223333333333333333322332332224.%",
"214333333323333323322222322224.X",
"11333333 &23X&2&&3223223222234.X",
"123334433333333333222232223234.%",
"12333333&2X12X& &13X2322322134.%",
"123333333233333332333222222224.X",
"21333332&&&1&X2 3&&3X&&X222234.X",
"213333333333323222222222222134.%",
"123333333333332223322322222134.X",
"113333233233232332232222322324.X",
"223334434434444444434434444444.%",
"12 .     .                    .X",
"2112%%%%o%%X%%o%X%%%o%X%X%oXXo%%",
"11121222122212122122122122222222"
};
