/* XPM */
static char *magick[] = {
/* columns rows colors chars-per-pixel */
"16 16 23 1",
"  c Gray0",
". c #191919",
"X c Gray20",
"o c #00007f",
"O c #007f00",
"+ c #007f7f",
"@ c #7f0000",
"# c #7f007f",
"$ c #7f7f00",
"% c #4c4c4c",
"& c #666667",
"* c Gray50",
"= c Blue",
"- c Green",
"; c Cyan",
": c Red",
"> c Magenta",
", c Yellow",
"< c Gray60",
"1 c #b2b2b2",
"2 c Gray80",
"3 c Gray90",
"4 c Gray100",
/* pixels */
"22111;1212211111",
"211221213<121221",
"2111212232<11122",
"121121221<231<11",
"2112232<34334112",
"1112222243213212",
";2221<11*&<<*<<1",
"1221233323232231",
"2233223333332&1<",
"2213123333233*1*",
"123312121222233*",
"1233212<<213223<",
"12331<1<<11<123*",
"123333322222223*",
"123223322222323*",
"2<&%%%X%%%%X%%X%"
};
